<?xml version="1.0" encoding="UTF-8"?>
<svg xmlns="http://www.w3.org/2000/svg" xmlns:xlink="http://www.w3.org/1999/xlink" width="867px" height="867px" viewBox="0 0 867 867" version="1.1">
<g id="surface1">
<path style=" stroke:none;fill-rule:nonzero;fill:rgb(0%,0%,0%);fill-opacity:1;" d="M 140.886719 318.1875 C 123.980469 325.558594 110.542969 340.730469 101.871094 360.671875 C 84.097656 404.023438 107.941406 453.007812 153.890625 466.011719 C 229.753906 488.121094 286.542969 398.820312 235.390625 337.695312 C 228.886719 330.328125 217.183594 321.222656 209.378906 318.1875 C 191.605469 310.386719 157.792969 310.820312 140.886719 318.1875 Z M 226.285156 346.367188 C 242.761719 365.441406 246.226562 372.808594 238.425781 372.808594 C 236.257812 372.808594 231.488281 367.175781 227.585938 359.804688 C 224.121094 352.867188 217.183594 345.066406 212.414062 342.464844 C 205.046875 338.5625 203.746094 338.996094 203.746094 346.367188 C 203.746094 351.136719 202.011719 356.335938 199.410156 357.636719 C 190.738281 362.839844 195.507812 368.476562 208.078125 368.476562 C 217.183594 368.476562 221.085938 370.640625 221.085938 375.410156 C 221.085938 380.613281 224.121094 381.914062 231.921875 380.613281 C 244.925781 378.011719 246.660156 382.78125 241.894531 405.324219 C 234.523438 438.703125 198.109375 463.410156 165.597656 457.34375 C 136.117188 452.140625 100.136719 413.992188 112.277344 401.855469 C 116.179688 397.953125 117.910156 399.253906 119.644531 406.621094 C 121.378906 411.824219 123.546875 416.160156 125.28125 416.160156 C 131.785156 416.160156 138.71875 405.324219 138.71875 395.785156 C 138.71875 389.714844 141.320312 385.816406 145.222656 385.816406 C 153.460938 385.816406 153.460938 382.78125 145.222656 374.542969 C 134.820312 364.140625 119.644531 368.476562 117.910156 382.347656 C 117.046875 389.28125 114.445312 394.484375 111.84375 394.484375 C 105.339844 394.484375 110.542969 367.175781 119.644531 352.867188 C 133.519531 331.628906 150.425781 324.257812 181.636719 326.425781 C 208.078125 327.726562 210.246094 328.59375 226.285156 346.367188 Z M 226.285156 346.367188 "/>
<path style=" stroke:none;fill-rule:nonzero;fill:rgb(0%,0%,0%);fill-opacity:1;" d="M 163.429688 332.0625 C 157.792969 337.695312 160.394531 351.136719 166.898438 351.136719 C 170.367188 351.136719 173.398438 353.300781 173.398438 355.902344 C 173.398438 358.503906 177.734375 359.804688 183.371094 358.9375 C 190.738281 358.070312 192.90625 354.601562 192.90625 344.632812 C 192.90625 333.363281 191.171875 331.628906 179.902344 330.328125 C 172.53125 329.460938 165.164062 330.328125 163.429688 332.0625 Z M 163.429688 332.0625 "/>
<path style=" stroke:none;fill-rule:nonzero;fill:rgb(0%,0%,0%);fill-opacity:1;" d="M 134.386719 348.96875 C 125.714844 358.070312 125.28125 359.804688 131.785156 359.804688 C 140.019531 359.804688 151.726562 349.835938 151.726562 342.898438 C 151.726562 335.09375 145.222656 337.261719 134.386719 348.96875 Z M 134.386719 348.96875 "/>
<path style=" stroke:none;fill-rule:nonzero;fill:rgb(0%,0%,0%);fill-opacity:1;" d="M 151.726562 364.140625 C 151.726562 368.910156 154.757812 372.808594 158.226562 372.808594 C 161.695312 372.808594 164.730469 368.910156 164.730469 364.140625 C 164.730469 359.371094 161.695312 355.46875 158.226562 355.46875 C 154.757812 355.46875 151.726562 359.371094 151.726562 364.140625 Z M 151.726562 364.140625 "/>
<path style=" stroke:none;fill-rule:nonzero;fill:rgb(0%,0%,0%);fill-opacity:1;" d="M 173.398438 372.808594 C 173.398438 374.976562 170.367188 377.144531 166.898438 377.144531 C 163.429688 377.144531 160.394531 381.046875 160.394531 385.816406 C 160.394531 390.582031 157.359375 394.484375 153.890625 394.484375 C 150.425781 394.484375 147.390625 397.085938 147.390625 400.554688 C 147.390625 405.324219 151.726562 406.191406 164.730469 404.457031 C 180.335938 402.289062 182.070312 402.722656 182.070312 411.390625 C 182.070312 423.097656 193.773438 422.230469 201.144531 410.523438 C 205.046875 404.457031 204.179688 401.855469 198.542969 398.386719 C 193.773438 395.785156 190.738281 388.847656 190.738281 381.480469 C 190.738281 371.507812 188.574219 368.476562 182.070312 368.476562 C 177.300781 368.476562 173.398438 370.210938 173.398438 372.808594 Z M 173.398438 372.808594 "/>
<path style=" stroke:none;fill-rule:nonzero;fill:rgb(0%,0%,0%);fill-opacity:1;" d="M 199.410156 383.648438 C 199.410156 387.117188 202.445312 390.148438 205.914062 390.148438 C 209.378906 390.148438 212.414062 387.117188 212.414062 383.648438 C 212.414062 380.179688 209.378906 377.144531 205.914062 377.144531 C 202.445312 377.144531 199.410156 380.179688 199.410156 383.648438 Z M 199.410156 383.648438 "/>
<path style=" stroke:none;fill-rule:nonzero;fill:rgb(0%,0%,0%);fill-opacity:1;" d="M 215.015625 399.6875 C 206.347656 411.824219 206.347656 417.894531 214.582031 424.828125 C 223.6875 432.199219 229.320312 426.5625 234.089844 405.757812 C 237.125 392.316406 236.257812 390.148438 229.753906 390.148438 C 224.988281 390.148438 218.484375 394.484375 215.015625 399.6875 Z M 215.015625 399.6875 "/>
<path style=" stroke:none;fill-rule:nonzero;fill:rgb(0%,0%,0%);fill-opacity:1;" d="M 134.820312 417.894531 C 127.015625 427.429688 130.917969 435.234375 148.691406 443.46875 C 167.765625 452.574219 187.273438 453.007812 204.179688 443.902344 C 216.75 437.402344 217.183594 436.96875 210.246094 429.164062 C 203.746094 422.230469 202.011719 421.796875 191.605469 427.429688 C 173.832031 436.535156 159.527344 434.800781 149.558594 422.230469 C 141.320312 412.257812 140.019531 411.824219 134.820312 417.894531 Z M 134.820312 417.894531 "/>
<path style=" stroke:none;fill-rule:nonzero;fill:rgb(0%,0%,0%);fill-opacity:1;" d="M 160.394531 418.328125 C 160.394531 421.796875 163.429688 424.828125 166.898438 424.828125 C 170.367188 424.828125 173.398438 421.796875 173.398438 418.328125 C 173.398438 414.859375 170.367188 411.824219 166.898438 411.824219 C 163.429688 411.824219 160.394531 414.859375 160.394531 418.328125 Z M 160.394531 418.328125 "/>
<path style=" stroke:none;fill-rule:nonzero;fill:rgb(0%,0%,0%);fill-opacity:1;" d="M 473.816406 360.671875 C 474.683594 363.707031 478.152344 366.308594 481.183594 366.308594 C 484.21875 366.308594 487.6875 363.707031 488.988281 360.671875 C 489.855469 357.636719 486.820312 355.46875 481.183594 355.46875 C 475.550781 355.46875 472.515625 357.636719 473.816406 360.671875 Z M 473.816406 360.671875 "/>
<path style=" stroke:none;fill-rule:nonzero;fill:rgb(0%,0%,0%);fill-opacity:1;" d="M 622.941406 358.070312 C 619.039062 362.40625 623.804688 368.476562 631.175781 368.476562 C 634.644531 368.476562 637.246094 365.441406 637.246094 361.972656 C 637.246094 355.46875 628.140625 352.867188 622.941406 358.070312 Z M 622.941406 358.070312 "/>
<path style=" stroke:none;fill-rule:nonzero;fill:rgb(0%,0%,0%);fill-opacity:1;" d="M 303.015625 364.574219 C 292.179688 368.476562 281.773438 384.082031 281.773438 396.21875 C 281.773438 399.253906 285.675781 407.054688 290.878906 413.558594 C 301.714844 426.996094 329.027344 429.597656 338.5625 417.460938 C 344.199219 410.957031 343.332031 410.957031 327.726562 413.558594 C 315.15625 416.160156 309.519531 414.859375 303.015625 409.222656 C 285.242188 393.183594 299.113281 370.210938 323.824219 374.109375 C 342.464844 377.144531 345.933594 370.640625 328.59375 364.574219 C 321.222656 361.972656 315.15625 359.804688 314.722656 360.238281 C 314.289062 360.238281 309.085938 362.40625 303.015625 364.574219 Z M 303.015625 364.574219 "/>
<path style=" stroke:none;fill-rule:nonzero;fill:rgb(0%,0%,0%);fill-opacity:1;" d="M 351.136719 392.316406 C 351.136719 421.796875 352.003906 424.828125 359.804688 424.828125 C 367.175781 424.828125 368.476562 421.796875 368.476562 407.921875 C 368.476562 389.28125 372.375 384.082031 383.214844 388.414062 C 387.984375 390.148438 390.148438 396.652344 390.148438 407.921875 C 390.148438 420.0625 391.882812 424.828125 396.652344 424.828125 C 401.421875 424.828125 403.15625 419.628906 403.15625 405.757812 C 403.15625 384.082031 395.351562 374.976562 379.3125 378.011719 C 370.210938 379.746094 368.476562 378.445312 368.476562 370.210938 C 368.476562 362.839844 365.875 359.804688 359.804688 359.804688 C 352.003906 359.804688 351.136719 362.839844 351.136719 392.316406 Z M 351.136719 392.316406 "/>
<path style=" stroke:none;fill-rule:nonzero;fill:rgb(0%,0%,0%);fill-opacity:1;" d="M 706.605469 392.316406 C 706.605469 417.027344 707.90625 424.828125 712.675781 424.828125 C 715.707031 424.828125 719.609375 420.496094 720.910156 415.292969 L 723.511719 405.757812 L 733.914062 415.292969 C 751.6875 432.199219 761.660156 426.5625 744.753906 408.789062 L 735.648438 398.820312 L 745.621094 387.984375 C 754.722656 378.011719 755.15625 377.144531 747.789062 377.144531 C 743.453125 377.144531 735.214844 381.480469 729.582031 386.683594 L 719.609375 395.785156 L 719.609375 378.011719 C 719.609375 364.574219 717.875 359.804688 713.109375 359.804688 C 707.90625 359.804688 706.605469 366.308594 706.605469 392.316406 Z M 706.605469 392.316406 "/>
<path style=" stroke:none;fill-rule:nonzero;fill:rgb(0%,0%,0%);fill-opacity:1;" d="M 559.214844 368.476562 C 559.214844 370.640625 563.984375 372.808594 570.050781 372.808594 C 580.457031 372.808594 580.890625 374.109375 580.890625 398.820312 C 580.890625 419.195312 582.191406 424.828125 587.390625 424.828125 C 592.59375 424.828125 593.894531 419.195312 593.894531 398.820312 C 593.894531 374.109375 594.328125 372.808594 604.734375 372.808594 C 610.800781 372.808594 615.570312 370.640625 615.570312 368.476562 C 615.570312 365.875 603.433594 364.140625 587.390625 364.140625 C 571.351562 364.140625 559.214844 365.875 559.214844 368.476562 Z M 559.214844 368.476562 "/>
<path style=" stroke:none;fill-rule:nonzero;fill:rgb(0%,0%,0%);fill-opacity:1;" d="M 822.347656 374.109375 C 819.75 380.613281 824.949219 411.824219 829.71875 419.628906 C 831.453125 422.664062 837.957031 424.828125 844.457031 424.398438 L 856.164062 424.398438 L 846.625 417.460938 C 835.355469 409.65625 833.1875 391.015625 843.15625 387.550781 C 846.625 385.816406 849.660156 383.214844 849.660156 381.046875 C 849.660156 378.878906 846.625 377.144531 843.15625 377.144531 C 839.691406 377.144531 836.65625 374.976562 836.65625 372.808594 C 836.65625 366.308594 824.949219 367.609375 822.347656 374.109375 Z M 822.347656 374.109375 "/>
<path style=" stroke:none;fill-rule:nonzero;fill:rgb(0%,0%,0%);fill-opacity:1;" d="M 418.328125 381.480469 C 415.726562 385.816406 416.160156 386.25 433.066406 387.117188 C 449.539062 388.414062 449.105469 397.953125 432.632812 399.6875 C 420.496094 400.554688 418.328125 402.722656 418.328125 411.824219 C 418.328125 421.796875 420.0625 422.664062 439.136719 423.53125 L 459.511719 424.398438 L 459.511719 405.757812 C 459.511719 395.785156 457.34375 385.382812 454.308594 382.347656 C 447.804688 375.84375 422.230469 375.410156 418.328125 381.480469 Z M 446.503906 409.222656 C 446.503906 416.59375 434.800781 421.796875 431.332031 416.160156 C 429.597656 413.558594 430.03125 409.65625 431.332031 407.488281 C 435.234375 400.988281 446.503906 402.289062 446.503906 409.222656 Z M 446.503906 409.222656 "/>
<path style=" stroke:none;fill-rule:nonzero;fill:rgb(0%,0%,0%);fill-opacity:1;" d="M 476.851562 400.988281 C 476.851562 419.195312 478.152344 424.828125 483.351562 424.828125 C 488.554688 424.828125 489.855469 419.195312 489.855469 400.988281 C 489.855469 382.78125 488.554688 377.144531 483.351562 377.144531 C 478.152344 377.144531 476.851562 382.78125 476.851562 400.988281 Z M 476.851562 400.988281 "/>
<path style=" stroke:none;fill-rule:nonzero;fill:rgb(0%,0%,0%);fill-opacity:1;" d="M 502.859375 401.421875 C 502.859375 419.195312 504.59375 424.828125 509.363281 424.828125 C 513.699219 424.828125 515.863281 420.496094 515.863281 410.089844 C 515.863281 394.917969 524.96875 382.78125 533.203125 387.984375 C 535.371094 389.28125 537.539062 398.386719 537.539062 407.921875 C 537.539062 420.0625 539.273438 424.828125 544.042969 424.828125 C 552.277344 424.828125 553.144531 388.847656 544.910156 382.347656 C 541.875 379.746094 531.039062 377.578125 521.066406 378.011719 L 502.859375 378.011719 Z M 502.859375 401.421875 "/>
<path style=" stroke:none;fill-rule:nonzero;fill:rgb(0%,0%,0%);fill-opacity:1;" d="M 624.238281 400.988281 C 624.238281 419.195312 625.539062 424.828125 630.742188 424.828125 C 635.945312 424.828125 637.246094 419.195312 637.246094 400.988281 C 637.246094 382.78125 635.945312 377.144531 630.742188 377.144531 C 625.539062 377.144531 624.238281 382.78125 624.238281 400.988281 Z M 624.238281 400.988281 "/>
<path style=" stroke:none;fill-rule:nonzero;fill:rgb(0%,0%,0%);fill-opacity:1;" d="M 654.585938 385.816406 C 644.179688 396.21875 643.746094 402.289062 652.851562 415.292969 C 658.054688 423.097656 663.253906 424.828125 675.394531 423.964844 C 683.628906 423.097656 691.433594 420.0625 692.734375 416.59375 C 694.035156 412.257812 691.433594 411.390625 681.460938 413.992188 C 665.855469 417.460938 656.753906 406.621094 664.121094 393.183594 C 667.15625 387.117188 671.058594 385.816406 681.027344 387.984375 C 694.035156 391.015625 698.800781 384.515625 686.664062 379.746094 C 674.09375 374.976562 663.253906 377.144531 654.585938 385.816406 Z M 654.585938 385.816406 "/>
<path style=" stroke:none;fill-rule:nonzero;fill:rgb(0%,0%,0%);fill-opacity:1;" d="M 769.894531 384.082031 C 752.554688 400.988281 766.863281 426.996094 791.570312 423.964844 C 805.007812 422.230469 803.277344 414.425781 789.402344 414.425781 C 770.328125 413.992188 773.796875 403.15625 792.871094 403.15625 C 805.441406 403.15625 810.644531 401.421875 810.644531 397.085938 C 810.644531 387.550781 798.074219 377.144531 786.800781 377.144531 C 781.167969 377.144531 773.363281 380.179688 769.894531 384.082031 Z M 796.773438 393.183594 C 797.640625 396.652344 794.171875 398.820312 787.234375 398.820312 C 776.398438 398.820312 772.929688 394.484375 779 388.414062 C 783.335938 384.082031 794.605469 387.117188 796.773438 393.183594 Z M 796.773438 393.183594 "/>
</g>
</svg>
