<svg width="149" height="37" viewBox="0 0 149 37" fill="none" xmlns="http://www.w3.org/2000/svg">

 <g>
  <title>Layer 1</title>
  <path id="svg_3" d="m267.54063,288.01582l28.21733,0.01017l-0.91566,1.27803l-26.3752,-0.03052l-0.92647,-1.25768l0,0zm0.19391,-17.00063l27.84028,-0.03052l0.80796,1.31106l-29.46698,0.01017l0.81874,-1.29071zm-2.7475,8.51879l33.31371,-0.03052l-0.04306,1.31106l-33.2491,-0.02035l-0.02155,-1.26019zm33.34129,0.1216c0,8.67952 -7.47818,15.7404 -16.67162,15.7404c-9.18947,0 -16.66626,-7.06215 -16.66626,-15.7404c0,-8.67829 7.47814,-15.73916 16.66626,-15.73916c9.19344,-0.00128 16.67162,7.06088 16.67162,15.73916zm-16.67031,-17.00063c-9.92302,0 -17.99798,7.62577 -17.99798,16.99935c0,9.37486 8.07495,17.00063 17.99798,17.00063c9.92842,0 18.00203,-7.62577 18.00203,-17.00063c0,-9.37358 -8.0736,-16.99935 -18.00203,-16.99935zm5.05074,17.00063c0,9.27479 -2.66082,15.7404 -5.05074,15.7404c-2.38721,0 -5.04799,-6.46561 -5.04799,-15.7404c0,-9.27734 2.65947,-15.73916 5.04799,-15.73916c2.38857,-0.00128 5.05074,6.46182 5.05074,15.73916zm-5.05074,-17.00063c-4.1454,0 -6.38241,8.7593 -6.38241,16.99935c0,8.24257 2.23701,17.00063 6.38241,17.00063c4.14545,0 6.38651,-8.75933 6.38651,-17.00063c-0.00135,-8.24005 -2.24106,-16.99935 -6.38651,-16.99935zm11.8288,17.00063c0,8.67952 -5.30821,15.7404 -11.8288,15.7404c-6.51923,0 -11.82475,-7.06215 -11.82475,-15.7404c0,-8.67829 5.30551,-15.73916 11.82475,-15.73916c6.52059,-0.00128 11.8288,7.06088 11.8288,15.73916zm-11.8288,-17.00063c-7.25418,0 -13.15917,7.62577 -13.15917,16.99935c0,9.37486 5.90499,17.00063 13.15917,17.00063c7.25688,0 13.16056,-7.62577 13.16056,-17.00063c0,-9.37358 -5.90368,-16.99935 -13.16056,-16.99935z" stroke-width="0" stroke="#EEFF9F" fill="#003f7f"/>
 </g>
</svg>